<svg xmlns="http://www.w3.org/2000/svg" viewBox="0 0 90.29 42.12"><title>Bus</title><g id="Layer_2" data-name="Layer 2"><g id="Layer_1-2" data-name="Layer 1"><path d="M90.29,3.85V31.34a2.88,2.88,0,0,1-2.89,2.88H0V16.71L3.53,3.86l0-.09A5.29,5.29,0,0,1,8.63,0H86.44A3.85,3.85,0,0,1,90.29,3.85Z" style="fill:#3a9ec1"/><path d="M90.29,3.85V21H16.7a7.29,7.29,0,0,0-6.16,3.41L6.73,30.5A8,8,0,0,1,0,34.22H0V16.71L3.53,3.86l0-.09A5.29,5.29,0,0,1,8.63,0H86.44A3.85,3.85,0,0,1,90.29,3.85Z" style="fill:#fff"/><path d="M29.67,34.22H9.23a10.22,10.22,0,0,1,20.44,0Z" style="fill:#3a9ec1"/><path d="M13.79,5.64,7.14,17.87H0V16.71L3.53,3.86h9.22A1.2,1.2,0,0,1,13.79,5.64Z" style="fill:#0e4356"/><circle cx="19.45" cy="34.34" r="7.78" transform="translate(-11.66 10.06) rotate(-22.5)" style="fill:#0e4356"/><circle cx="19.45" cy="34.34" r="3.98" style="fill:#fff"/><circle cx="19.45" cy="34.34" r="2.29" style="fill:#0e4356"/><path d="M77.11,34.22H56.67a10.22,10.22,0,0,1,20.44,0Z" style="fill:#3a9ec1"/><circle cx="66.89" cy="34.34" r="7.78" transform="translate(-4.69 57.36) rotate(-45)" style="fill:#0e4356"/><path d="M70.87,34.34a4,4,0,1,1-4-4A4,4,0,0,1,70.87,34.34Z" style="fill:#fff"/><path d="M69.18,34.34a2.29,2.29,0,1,1-2.29-2.29A2.29,2.29,0,0,1,69.18,34.34Z" style="fill:#0e4356"/><path d="M5.46,25,3.64,29.31A1.94,1.94,0,0,1,1.85,30.5H0V23.76H4.66A.87.87,0,0,1,5.46,25Z" style="fill:#0e4356"/><rect x="17.66" y="4.08" width="10.66" height="12.54" style="fill:#0e4356"/><rect x="31.88" y="4.08" width="10.66" height="12.54" style="fill:#0e4356"/><rect x="46.09" y="4.08" width="10.66" height="12.54" style="fill:#0e4356"/><rect x="60.3" y="4.08" width="10.66" height="12.54" style="fill:#0e4356"/><rect x="74.51" y="4.08" width="10.66" height="12.54" style="fill:#0e4356"/></g></g></svg>