<svg xmlns="http://www.w3.org/2000/svg" viewBox="0 0 106.84 39.91"><title>Train</title><g id="Layer_2" data-name="Layer 2"><g id="Layer_1-2" data-name="Layer 1"><path d="M106.84,7.39H34a15.12,15.12,0,0,0-9.4,3.27,14.71,14.71,0,0,0-2.75,2.82L10.42,28.73a5.09,5.09,0,0,0-.78,1.54,5,5,0,0,0,4.76,6.4h92.44Z" style="fill:#fff"/><path d="M106.84,7.39H34a15.12,15.12,0,0,0-9.4,3.27,14.71,14.71,0,0,0-2.75,2.82L10.42,28.73a5.09,5.09,0,0,0-.78,1.54,5,5,0,0,0,4.76,6.4h92.44Z" style="fill:#fff"/><path d="M106.84,33.29H9.7a4.93,4.93,0,0,0,4.7,3.38h92.44Z" style="fill:#6bc5e8"/><path d="M106.84,10.66H24.59a14.65,14.65,0,0,0-2.75,2.81l-.05.06L11.73,27l-1.31,1.74a5.21,5.21,0,0,0-.78,1.54H29.28a7.15,7.15,0,0,0,5.06-2.09L37.49,25a4.67,4.67,0,0,1,3.32-1.38h66Z" style="fill:#6bc5e8"/><rect y="36.67" width="106.84" height="3.24" style="fill:#0e4356"/><polygon points="106.84 0 28.31 0 28.31 1.08 42.05 1.08 42.05 7.38 43.6 7.38 43.6 1.08 49.36 1.08 49.36 7.38 50.92 7.38 50.92 1.08 79.49 1.08 79.49 7.38 81.05 7.38 81.05 1.08 86.49 1.08 86.49 7.38 88.05 7.38 88.05 1.08 106.84 1.08 106.84 0" style="fill:#0e4356"/><path d="M42,13.53,32.44,24.88A6,6,0,0,1,27.88,27H13.51L23.58,13.53Z" style="fill:#0e4356"/><polygon points="55.09 21.41 61.73 13.53 47.59 13.53 41.7 21.41 55.09 21.41" style="fill:#0e4356"/><polygon points="72.08 21.41 78.73 13.53 64.59 13.53 58.7 21.41 72.08 21.41" style="fill:#0e4356"/><polygon points="89.59 21.41 96.23 13.53 82.1 13.53 76.21 21.41 89.59 21.41" style="fill:#0e4356"/><polygon points="106.84 13.53 99.09 13.53 93.2 21.41 106.84 21.41 106.84 13.53" style="fill:#0e4356"/></g></g></svg>