<svg id="Layer_1" data-name="Layer 1" xmlns="http://www.w3.org/2000/svg" xmlns:xlink="http://www.w3.org/1999/xlink" viewBox="0 0 140 121"><defs><clipPath id="clip-path"><rect id="SVGID" x="0.28" y="-0.02" width="139.9" height="121.29" rx="4.68" style="fill:none"/></clipPath></defs><title>Artboard 1</title><g style="clip-path:url(#clip-path)"><circle cx="114.8" cy="28.06" r="57.6" style="fill:#00c853;opacity:0.30000000000000004"/><path d="M87.5,99.16S83.4,91,89.32,85.82s14.29-6.49,14.29-6.49S101.27,86.82,98.68,90A40.89,40.89,0,0,1,87.5,99.16Z" style="fill:#00c853"/><path d="M89.55,134.28S81,105.6,91.92,88.22" style="fill:none;stroke:#353535;stroke-linecap:round;stroke-miterlimit:10;stroke-width:0.5px"/><path d="M104.33,116.91s1.14-6,6.47-6.5a22.14,22.14,0,0,1,10.42,2s-4.35,3.14-7.06,3.85A28.7,28.7,0,0,1,104.33,116.91Z" style="fill:#00c853"/><path d="M94.16,133.09s4-15.2,17.07-20.38" style="fill:none;stroke:#353535;stroke-linecap:round;stroke-miterlimit:10;stroke-width:0.5px"/><path d="M93.74,111.73S90.29,101.61,96.79,97s15.15-4.35,15.15-4.35-3.06,8-6,11A36,36,0,0,1,93.74,111.73Z" style="fill:#00c853"/><path d="M79.64,100.35s6.49-1,8.67,3.19a15.45,15.45,0,0,1,1.23,9.07s-4.58-2.53-6.16-4.5A20.5,20.5,0,0,1,79.64,100.35Z" style="fill:#00c853"/><path d="M93.86,144.09s-7.3-26.43,5.37-43.81" style="fill:none;stroke:#353535;stroke-linecap:round;stroke-miterlimit:10;stroke-width:0.5px"/><path d="M85.33,105.93a32.44,32.44,0,0,1,6.75,14.82" style="fill:none;stroke:#353535;stroke-linecap:round;stroke-miterlimit:10;stroke-width:0.5px"/><path d="M82.43,5.74h23a2.78,2.78,0,0,1,2.53,3V19.6a2.78,2.78,0,0,1-2.53,3h-.16l.12,3.14c0,.57-.45,1-.9.76l-4.78-3.9H82.43a2.77,2.77,0,0,1-2.53-3V8.71A2.77,2.77,0,0,1,82.43,5.74Z" style="fill:#fff"/><polygon points="110.29 99.56 142.07 100.14 140.51 186.86 109.07 186.3 110.29 99.56" style="fill:#353535"/><rect x="121.15" y="34.1" width="8.4" height="16.02" transform="translate(2.15 -5.94) rotate(2.74)" style="fill:#fff"/><path d="M115.54,20.11s-3,6.15-1.6,10.67l1.26.36,3.29-8.27Z" style="fill:#353535"/><path d="M131.2,27.39s.36,16.49-10.61,16.13c-4.75-.16-6.4-8.45-5.36-16.3.85-6.5,3.76-6.75,7.73-7.09C129.12,19.62,131.69,18.15,131.2,27.39Z" style="fill:#fff"/><path d="M113.34,33.42c.53,1.37,1.67,2.16,2.55,1.75s1.16-1.86.63-3.23-1.67-2.16-2.55-1.75S112.81,32,113.34,33.42Z" style="fill:#fff"/><path d="M119.53,32.2a3.4,3.4,0,0,1-.67.42c-1.68.74,0,2.16,1,2.28" style="fill:none;stroke:#353535;stroke-linecap:round;stroke-miterlimit:10;stroke-width:0.5px"/><path d="M124.47,28.49a2.15,2.15,0,0,1,1.77.52c.78.77-.7.28-1.08.25S123.26,28.75,124.47,28.49Z" style="fill:#353535"/><path d="M116.81,27.77a2.15,2.15,0,0,1,1.85.05c1,.54-.61.44-1,.51S115.71,28.32,116.81,27.77Z" style="fill:#353535"/><path d="M121,36.45a6.37,6.37,0,0,0,3.59-1.68s.28,2.39-1.37,2.75A1.71,1.71,0,0,1,121,36.45Z" style="fill:#353535"/><path d="M116.83,30.44s.73,1.06,1.9,0" style="fill:none;stroke:#353535;stroke-linecap:round;stroke-miterlimit:10;stroke-width:0.5px"/><path d="M123.63,31s.73,1.06,1.89,0" style="fill:none;stroke:#353535;stroke-linecap:round;stroke-miterlimit:10;stroke-width:0.5px"/><path d="M131.37,31.49s-3.1.91-1.74-8.12c0,0-9.88,4.82-14.92-2.74-4.94-7.39,14.1-3.88,16.47-2.59C134.59,19.91,133,27.64,131.37,31.49Z" style="fill:#353535"/><path d="M132.44,34.92c.65-1.62.25-3.34-.9-3.85s-2.61.4-3.27,2-.25,3.35.9,3.85S131.78,36.54,132.44,34.92Z" style="fill:#fff"/><path d="M131,32.88a2.48,2.48,0,0,0-1.73,2.32" style="fill:none;stroke:#353535;stroke-linecap:round;stroke-miterlimit:10;stroke-width:0.5px"/><path d="M130.73,34.61a3.77,3.77,0,0,0-.6-1.15" style="fill:none;stroke:#353535;stroke-linecap:round;stroke-miterlimit:10;stroke-width:0.5px"/><path d="M121.12,43.63a9.18,9.18,0,0,0,5.85-3" style="fill:none;stroke:#353535;stroke-linecap:round;stroke-miterlimit:10;stroke-width:0.5px"/><path d="M115,32.18a11.87,11.87,0,0,0,.14,2.9" style="fill:none;stroke:#353535;stroke-linecap:round;stroke-miterlimit:10;stroke-width:0.5px"/><path d="M129.35,47.26c-6,4.19-8.51-.07-8.51-.07-2.3.68-4.8,1.45-6.37,1.93a8.4,8.4,0,0,0-2.85,1.54A213.25,213.25,0,0,1,94.47,63.42l2.71,10.92,11.72-6.06L109,100.8c12.26,6.67,33.53,1.76,33.53,1.76l-.36-50.35C138.14,49.14,129.35,47.26,129.35,47.26Z" style="fill:#1693dc"/><path d="M121.82,87.68s-7.17,1.58-8.26,3-.39,1.9,2.66.51A25.1,25.1,0,0,1,123,89.47Z" style="fill:#fff"/><path d="M121.5,89.31s-8.09,2-9.16,3.51c-.69,1-.09,1.61,2.64.51a34.23,34.23,0,0,1,6.79-1.76Z" style="fill:#fff"/><path d="M122.66,90.73s-7.19,2.45-8.28,3.9c-.88,1.17.49,1.27,3,.05A33.48,33.48,0,0,1,124,92.4Z" style="fill:#fff"/><path d="M124.9,91.93S119,95.2,118.3,96.2s.85.78,3.37-.83,3.15-1.46,3.15-1.46Z" style="fill:#fff"/><path d="M123.36,94.35s5.59-.95,7.27-1,3.23-1.4,3.19-2.69-.68-3.08-4.68-1.67A11,11,0,0,0,123.36,94.35Z" style="fill:#fff"/><path d="M121,91.65s.39,0-.15.3l1.06-.35-.13-.18Z" style="fill:#fff"/><path d="M123.91,94l-2.19-2.12-1-3.9,5.62-2.65s8.48.92,7.49,3.65S123.91,94,123.91,94Z" style="fill:#fff"/><path d="M120.82,89.65a22.73,22.73,0,0,0-7.43,2.48" style="fill:none;stroke:#353535;stroke-linecap:round;stroke-miterlimit:10;stroke-width:0.5px"/><path d="M126.32,85.33a18.52,18.52,0,0,0-5.42.88c-2.33.87-2.69.07-3.42.4s.17,1.52,2.15,1.71S126.32,85.33,126.32,85.33Z" style="fill:#fff"/><line x1="119.32" y1="88.27" x2="121.3" y2="87.75" style="fill:none;stroke:#353535;stroke-linecap:round;stroke-miterlimit:10;stroke-width:0.5px"/><path d="M121.67,93s.86.19.45.64c0,0,1.13-.56,1.07-.57a7.78,7.78,0,0,1-.65-.58Z" style="fill:#fff"/><path d="M118.6,92.22a10.89,10.89,0,0,1,2.78-.92" style="fill:none;stroke:#353535;stroke-linecap:round;stroke-miterlimit:10;stroke-width:0.5px"/><path d="M142.09,52.19s2,.79,12.07,29.93c0,0-2.15,8.85-27.1,11.8L125.4,83.67l16.12-6.15" style="fill:#1693dc"/><line x1="109.01" y1="68.2" x2="109.48" y2="61.55" style="fill:none;stroke:#353535;stroke-linecap:round;stroke-miterlimit:10;stroke-width:0.5px"/><polygon points="124.12 49.06 120.87 45.71 117.2 48.21 121.21 52.41 124.12 49.06" style="fill:#353535"/><polygon points="123.99 49.06 129.35 45.13 132.25 47.94 126.9 52.41 123.99 49.06" style="fill:#353535"/><path d="M80.49,33.87s.46-1.82,1.77-1.43,2.28,3.77,1.95,4.8c-.47,1.49-1.93,0-1.93,0S81.31,34.22,80.49,33.87Z" style="fill:#fff"/><path d="M85.1,44.8a14.85,14.85,0,0,0,1.84-4.08c.16-1.43-1-3.23-1.37-3.84a33.13,33.13,0,0,1-1.25-3.12L79.84,35,77.4,38.24s1.22,3.53,1.57,4.35,3.76,3.25,3.76,3.25Z" style="fill:#fff"/><path d="M82,35.89l.27-2.68s-1.44-7.28,0-7.32c.84,0,1.16,2.55,1.63,5.05.42,2.22.55,3.67.55,3.67Z" style="fill:#fff"/><path d="M77.46,36.91s-.08.23.3.66" style="fill:#8c63da"/><path d="M84.19,37.39s.49,1.1,0,1.34-2.58-.52-3.07.15,1.36,2.12,2.27,3.06a3.28,3.28,0,0,0-.47,1.9" style="fill:none;stroke:#353535;stroke-miterlimit:10;stroke-width:0.5px"/><path d="M82.51,32.62s2.42,4.17,1.68,4.77a1.17,1.17,0,0,1-1.78-.21" style="fill:none;stroke:#353535;stroke-miterlimit:10;stroke-width:0.5px"/><path d="M78.47,34.62s.46-1.82,1.76-1.43S83,36.65,82.3,38.05s-2,0-2,0S79.29,35,78.47,34.62Z" style="fill:#fff"/><path d="M77.84,34.43s1-.3,1.83,1.86,1,2.5.48,3-2.31-1.55-2.31-1.55l-.44.48S75.8,35.18,77.84,34.43Z" style="fill:#fff"/><path d="M78.46,34.54s2.24,2.63,2.27,3.91-1.61.43-2.9-1.2" style="fill:none;stroke:#353535;stroke-miterlimit:10;stroke-width:0.5px"/><path d="M80.62,33.38s2.68,4.31,1.69,4.88c-1.17.66-1.65-.14-1.65-.14" style="fill:none;stroke:#353535;stroke-miterlimit:10;stroke-width:0.5px"/><path d="M95.38,74.78s6.82-.53,5.15-6.57c-1.9-6.88-2.74-6.54-6.12-13-3.92-7.54-6.88-13.15-7-13.92s-5.88,2-7.33,2.68a.37.37,0,0,0-.19.49c.45,1.15,2.06,5.19,4.68,12.09C87.32,63.78,88.87,73.94,95.38,74.78Z" style="fill:#1693dc"/><path d="M125.72,85.18s12.19-4.92,16.51-5.76" style="fill:none;stroke:#353535;stroke-linecap:round;stroke-miterlimit:10;stroke-width:0.5px"/><path d="M135.92,62.62s3.84,13.2,5.52,16.8" style="fill:none;stroke:#353535;stroke-linecap:round;stroke-miterlimit:10;stroke-width:0.5px"/><path d="M127.06,93.92s6.4-1,15.31-3.34" style="fill:none;stroke:#353535;stroke-linecap:round;stroke-miterlimit:10;stroke-width:0.5px"/><path d="M97.82,61.09s-.72,5.67-1.71,7.83" style="fill:none;stroke:#353535;stroke-linecap:round;stroke-miterlimit:10;stroke-width:0.5px"/></g></svg>