<svg xmlns="http://www.w3.org/2000/svg" viewBox="0 0 10.6 13.39"><title>Asset 14</title><g id="Layer_2" data-name="Layer 2"><g id="Layer_1-2" data-name="Layer 1"><path d="M8.06.13V2.06a.7.7,0,0,0,.7.7h1.71a.12.12,0,0,1,.13.12v9.94a.57.57,0,0,1-.57.57H.57A.57.57,0,0,1,0,12.82V.57A.58.58,0,0,1,.57,0H7.93A.13.13,0,0,1,8.06.13Z" style="fill:#ffad2b"/><line x1="2.74" y1="5.52" x2="7.86" y2="5.52" style="fill:none;stroke:#fff;stroke-linecap:round;stroke-miterlimit:10"/><line x1="2.74" y1="7.88" x2="7.86" y2="7.88" style="fill:none;stroke:#fff;stroke-linecap:round;stroke-miterlimit:10"/><line x1="2.74" y1="10.24" x2="7.86" y2="10.24" style="fill:none;stroke:#fff;stroke-linecap:round;stroke-miterlimit:10"/></g></g></svg>