<svg xmlns="http://www.w3.org/2000/svg" viewBox="0 0 19.83 11.38"><title>Asset 18</title><g id="Layer_2" data-name="Layer 2"><g id="Layer_1-2" data-name="Layer 1"><circle cx="9.89" cy="4.44" r="1.82" style="fill:#b036f5"/><path d="M13.06,11.38a.44.44,0,0,0,.37-.54c-.32-2.12-1.78-3.73-3.54-3.73S6.66,8.72,6.35,10.84a.44.44,0,0,0,.36.54Z" style="fill:#b036f5"/><path d="M4.46,1.52A1.52,1.52,0,1,1,3,0,1.51,1.51,0,0,1,4.46,1.52Z" style="fill:#b036f5"/><path d="M5.59,7.29a.36.36,0,0,0,.3-.45A3.3,3.3,0,0,0,3,3.74C1.48,3.74.27,5.08,0,6.84a.36.36,0,0,0,.3.45Z" style="fill:#b036f5"/><path d="M18.4,1.52A1.52,1.52,0,1,1,16.88,0,1.52,1.52,0,0,1,18.4,1.52Z" style="fill:#b036f5"/><path d="M19.52,7.29a.36.36,0,0,0,.3-.45c-.26-1.76-1.47-3.1-2.94-3.1a3.3,3.3,0,0,0-2.94,3.1.36.36,0,0,0,.3.45Z" style="fill:#b036f5"/></g></g></svg>