<svg xmlns="http://www.w3.org/2000/svg" viewBox="0 0 12.96 14.22"><title>Asset 19</title><g id="Layer_2" data-name="Layer 2"><g id="Layer_1-2" data-name="Layer 1"><path d="M3.85,3.44a3,3,0,0,1,2,.82.89.89,0,0,0,1.2,0,3,3,0,0,1,2-.82C11.24,3.44,13,5.85,13,8.83S9.29,14.22,8,14.22a1.54,1.54,0,0,1-1-.47.85.85,0,0,0-1.12,0,1.54,1.54,0,0,1-1,.47C3.67,14.22,0,11.81,0,8.83S1.72,3.44,3.85,3.44Z" style="fill:#0050c1"/><path d="M6.51,4.88S7.19,1.76,5.07.55" style="fill:none;stroke:#0050c1;stroke-linecap:round;stroke-miterlimit:10"/><path d="M6.56,2.5S8-1,10.84.29C10.84.29,10,3,6.56,2.5Z" style="fill:#0050c1"/></g></g></svg>