<svg xmlns="http://www.w3.org/2000/svg" viewBox="0 0 9 8.7"><title>Asset 13</title><g id="Layer_2" data-name="Layer 2"><g id="Layer_1-2" data-name="Layer 1"><polygon points="4.5 8.7 0 4.35 4.5 0 9 4.35 4.5 8.7" style="fill:#ff9d9d"/><polygon points="2.62 4.35 0 4.35 4.5 0 2.62 4.35" style="fill:#ff3c56"/><polygon points="6.38 4.35 9 4.35 4.5 0 6.38 4.35" style="fill:#ff7373"/><polygon points="6.38 4.35 9 4.35 4.5 8.7 6.38 4.35" style="fill:#ff3c56"/><polygon points="2.62 4.35 0 4.35 4.5 8.7 2.62 4.35" style="fill:#d92852"/><polygon points="2.62 4.35 6.38 4.35 4.5 8.7 2.62 4.35" style="fill:#ff7373"/><path d="M6.31,2.52a1,1,0,0,0-.95-1A1,1,0,0,0,6.31.61a1,1,0,0,0,1,1A1,1,0,0,0,6.31,2.52Z" style="fill:#fff"/></g></g></svg>